<svg xmlns="http://www.w3.org/2000/svg" width="90" height="90" enable-background="new 0 0 90 90" viewBox="0 0 90 90"><path d="M74.392,59.406C70.685,56.15,66.143,54,62.164,54h-3.479c4.572-3.519,7.532-8.769,8.179-14.583
	c0.793-0.865,1.561-2.375,2.071-4.245c0.922-3.375,0.66-6.641-0.584-7.292c-0.41-0.217-0.877-0.348-1.352-0.308v-0.094
	c0-7.859-4.197-15.124-10.998-19.057c-3.406-1.963-7.211-2.943-11.013-2.943c-3.797,0-7.59,0.98-10.996,2.943
	C27.19,12.355,23,19.62,23,27.479v0.119c0-0.044-0.95,0.066-1.363,0.285c-1.245,0.65-1.507,3.916-0.586,7.291
	c0.514,1.882,1.287,3.329,2.085,4.227C23.801,45.197,26.75,51,31.299,54h-5.125c-3.979,0-8.169,2.183-11.47,5.464
	C11.402,62.745,9,67.427,9,72.568v10.479C9,83.859,9.638,85,10.45,85h69.083C80.346,85,81,83.859,81,83.047V72.568
	C81,67.344,78.106,62.655,74.392,59.406z M35.054,16.501c6.724,3.776,13.303,3.666,19.75,0.025c3.899,1.593,4.29,7.393,5.302,11.416
	C59.912,27.906,59.718,28,59.518,28h-9.65c-1.494,0-2.775,0.713-3.322,1.813C46.502,29.896,46.471,30,46.439,30h-2.885
	c-0.036,0-0.066-0.104-0.109-0.187C42.904,28.713,41.623,28,40.123,28h-9.646c-0.108,0-0.21-0.122-0.316-0.111
	C31.83,23.345,32.187,16.736,35.054,16.501z M60.07,31.427c-0.209,1.256-0.406,2.269-0.709,2.899C59.055,34.961,58.951,35,58.061,35
	h-7.387c-0.088,0-0.51-0.039-0.938-0.575c-0.432-0.542-0.816-1.288-1-2.048c-0.176-0.761-0.119-1.509,0.043-1.832
	C48.936,30.222,49.049,30,49.867,30h9.65c0.406,0,0.391,0.141,0.469,0.275C60.07,30.412,60.158,30.891,60.07,31.427z M30.002,30.275
	C30.086,30.141,30.07,30,30.477,30h9.646c0.817,0,0.926,0.255,1.089,0.578c0.156,0.323,0.219,1.058,0.041,1.818
	c-0.177,0.76-0.567,1.463-0.994,2.005C39.83,34.938,39.409,35,39.321,35H31.93c-0.885,0-0.995-0.039-1.303-0.674
	c-0.303-0.63-0.495-1.757-0.702-3.013C29.835,30.777,29.925,30.412,30.002,30.275z M26,37.006V32h0.382
	c0.385-0.067,0.736-0.2,1.061-0.38c0.01,0.073,0.011,0.146,0.023,0.219c0.202,1.219,0.35,2.633,0.921,3.82
	C28.961,36.847,30.264,38,31.93,38h7.391c1.255,0,2.187-0.898,2.886-1.779c0.697-0.879,1.202-2.178,1.468-3.313
	C43.727,32.685,43.764,33,43.794,32h2.395c0.031,1,0.068,0.623,0.121,0.847c0.266,1.135,0.781,2.416,1.473,3.294
	C48.482,37.022,49.414,38,50.674,38h7.387c1.666,0,2.973-1.153,3.547-2.341c0.572-1.187,0.719-2.54,0.922-3.758
	c0.001-0.005,0.001-0.041,0.002-0.046C62.814,31.966,63.126,32,63.477,32H64v1.146c-0.148,1.422-0.149,2.905-0.01,4.146
	c-0.104,6.572-3.794,12.621-9.496,15.912c-5.787,3.345-13.132,3.345-18.919,0C29.789,49.864,26,43.688,26,37.006z M36.242,59.646
	l-1.027-2.932c6.152,3.051,13.402,3.051,19.552,0l-1.025,2.932C50.701,68.417,39.123,68.005,36.242,59.646z M58.602,78.588
	c0.553,0.401,0.666,1.167,0.271,1.719c-0.402,0.552-1.162,0.661-1.715,0.267l-4.176-3.058c-0.313-0.229-0.5-0.595-0.5-0.99
	c0-0.4,0.188-0.766,0.5-0.995l4.176-3.057c0.215-0.156,0.465-0.229,0.719-0.229c0.387,0,0.75,0.172,0.996,0.5
	c0.395,0.553,0.281,1.313-0.271,1.709l-2.818,2.072L58.602,78.588z M65.143,71.891l-3.047,8.335C61.945,80.638,61.545,81,61.139,81
	h-0.016c-0.115,0-0.23-0.122-0.344-0.164c-0.521-0.198-0.793-0.845-0.594-1.372l3.047-8.255c0.15-0.391,0.52-0.655,0.916-0.67
	c0.135-0.004,0.271,0.009,0.4,0.056C65.07,70.793,65.342,71.37,65.143,71.891z M72.195,77.516l-4.178,3.058
	c-0.213,0.156-0.469,0.228-0.723,0.228c-0.381,0-0.75-0.17-0.99-0.495c-0.396-0.552-0.281-1.317,0.271-1.719l2.816-2.063
	l-2.816-2.072c-0.553-0.396-0.668-1.156-0.271-1.709c0.197-0.276,0.49-0.443,0.797-0.49c0.313-0.052,0.641,0.021,0.916,0.219
	l4.178,3.057c0.313,0.229,0.494,0.595,0.494,0.995C72.689,76.921,72.508,77.287,72.195,77.516z"/></svg>